<svg xmlns="http://www.w3.org/2000/svg" width="265.915" height="99.751" viewBox="0 0 265.915 99.751">
  <g id="slt-logo" transform="translate(-10.736 -4.636)">
    <g id="Group_9" data-name="Group 9" transform="translate(10.736 4.636)">
      <g id="Group_2" data-name="Group 2">
        <g id="Group_1" data-name="Group 1">
          <path id="Path_1" data-name="Path 1" d="M13.878,37.127a2.8,2.8,0,0,1-1.551-.434,3.211,3.211,0,0,1-1.179-4.343L26.226,6.227a3.182,3.182,0,1,1,5.522,3.164L16.608,35.576A3.1,3.1,0,0,1,13.878,37.127Z" transform="translate(-10.736 -4.636)" fill="#00b4eb"/>
        </g>
      </g>
      <g id="Group_4" data-name="Group 4" transform="translate(0 25.254)">
        <g id="Group_3" data-name="Group 3">
          <path id="Path_2" data-name="Path 2" d="M13.878,77.827a2.8,2.8,0,0,1-1.551-.434,3.211,3.211,0,0,1-1.179-4.343L26.226,46.927a3.182,3.182,0,0,1,5.522,3.164L16.608,76.214A3.035,3.035,0,0,1,13.878,77.827Z" transform="translate(-10.736 -45.336)" fill="#0056a2"/>
        </g>
      </g>
      <g id="Group_6" data-name="Group 6" transform="translate(24.881 25.254)">
        <g id="Group_5" data-name="Group 5">
          <path id="Path_3" data-name="Path 3" d="M54.04,77.827a3.158,3.158,0,0,1-1.613-.434,3.211,3.211,0,0,1-1.179-4.343L66.326,46.927a3.182,3.182,0,1,1,5.522,3.164L56.77,76.214A3.035,3.035,0,0,1,54.04,77.827Z" transform="translate(-50.836 -45.336)" fill="#1bb80f"/>
        </g>
      </g>
      <g id="Group_8" data-name="Group 8" transform="translate(23.928 31.56)">
        <g id="Group_7" data-name="Group 7">
          <circle id="Ellipse_1" data-name="Ellipse 1" cx="3.164" cy="3.164" r="3.164" fill="#1bb80f"/>
        </g>
      </g>
    </g>
    <g id="Group_20" data-name="Group 20" transform="translate(54.706 59.154)">
      <g id="Group_10" data-name="Group 10">
        <path id="Path_4" data-name="Path 4" d="M94.94,103.731c-2.916-.869-5.46-1.613-5.46-3.723,0-2.048,2.606-2.234,3.723-2.234a17.165,17.165,0,0,1,7.942,2.544l.31.186,2.3-4.964-.186-.124A18.741,18.741,0,0,0,93.7,92.5c-6.267,0-10.362,3.1-10.362,8,0,5.646,4.9,7.073,8.873,8.19,2.978.869,5.584,1.613,5.584,3.785,0,1.675-1.551,2.668-4.343,2.668a15.025,15.025,0,0,1-9.121-3.909l-.31-.248-2.42,4.9.186.124a17.965,17.965,0,0,0,11.6,4.405c6.453,0,10.61-3.226,10.61-8.252C103.875,106.4,98.973,104.91,94.94,103.731Z" transform="translate(-81.6 -92.5)" fill="#0056a2"/>
      </g>
      <g id="Group_11" data-name="Group 11" transform="translate(25.998 0.186)">
        <path id="Path_5" data-name="Path 5" d="M129.208,115.075V92.8H123.5v27.487h17.311v-5.212Z" transform="translate(-123.5 -92.8)" fill="#0056a2"/>
      </g>
      <g id="Group_12" data-name="Group 12" transform="translate(41.262 0.186)">
        <path id="Path_6" data-name="Path 6" d="M168.266,92.8H148.1v5.15h8.376v22.337h5.833V97.95h8.563Z" transform="translate(-148.1 -92.8)" fill="#0056a2"/>
      </g>
      <g id="Group_13" data-name="Group 13" transform="translate(87.86 0.062)">
        <path id="Path_7" data-name="Path 7" d="M237.843,92.6c-8.314,0-14.643,5.957-14.643,13.9,0,7.818,6.453,13.961,14.643,13.961s14.643-6.143,14.643-13.961C252.487,98.557,246.22,92.6,237.843,92.6Zm.062,22.647a8.719,8.719,0,1,1,0-17.435,8.718,8.718,0,0,1,0,17.435Z" transform="translate(-223.2 -92.6)" fill="#1bb80f"/>
      </g>
      <g id="Group_14" data-name="Group 14" transform="translate(120.559 0.248)">
        <path id="Path_8" data-name="Path 8" d="M293.77,105.806a6.159,6.159,0,0,0,3.909-5.895c0-4.343-3.661-7.011-9.555-7.011H275.9v27.487h12.6c6.329,0,10.238-2.978,10.238-7.694A6.935,6.935,0,0,0,293.77,105.806Zm-5.957-1.986h-6.267V97.864h6.391c2.42,0,3.847,1.055,3.847,2.916C291.784,102.7,290.357,103.82,287.813,103.82Zm-6.2,4.964H288c2.978,0,4.778,1.179,4.778,3.226a2.787,2.787,0,0,1-1.241,2.42,6.388,6.388,0,0,1-3.6.931h-6.391v-6.577Z" transform="translate(-275.9 -92.9)" fill="#1bb80f"/>
      </g>
      <g id="Group_15" data-name="Group 15" transform="translate(147.178 0.186)">
        <rect id="Rectangle_1" data-name="Rectangle 1" width="5.77" height="27.487" transform="translate(0)" fill="#1bb80f"/>
      </g>
      <g id="Group_16" data-name="Group 16" transform="translate(155.368 0.186)">
        <path id="Path_9" data-name="Path 9" d="M332,92.8v5.15h8.376v22.337h5.77V97.95h8.376V92.8Z" transform="translate(-332 -92.8)" fill="#1bb80f"/>
      </g>
      <g id="Group_17" data-name="Group 17" transform="translate(180.373 0.186)">
        <path id="Path_10" data-name="Path 10" d="M378.07,115.2v-6.143H391.1v-5.088H378.07V97.888H392.59V92.8H372.3v27.487h20.786V115.2Z" transform="translate(-372.3 -92.8)" fill="#1bb80f"/>
      </g>
      <g id="Group_18" data-name="Group 18" transform="translate(204.572 0.186)">
        <path id="Path_11" data-name="Path 11" d="M417.07,115.075V92.8H411.3v27.487h17.373v-5.212Z" transform="translate(-411.3 -92.8)" fill="#1bb80f"/>
      </g>
      <g id="Group_19" data-name="Group 19" transform="translate(60.187 0.186)">
        <path id="Path_12" data-name="Path 12" d="M196.532,92.8l-8.252,16.877-4.1-8.128H178.6l7.818,16.008h3.723l7.446-15.45.062,18.18h5.274V92.8Z" transform="translate(-178.6 -92.8)" fill="#1bb80f"/>
      </g>
    </g>
    <g id="Group_22" data-name="Group 22" transform="translate(104.716 95.452)">
      <g id="Group_21" data-name="Group 21">
        <path id="Path_13" data-name="Path 13" d="M169.273,151.1v1.3h-2.792v7.446h-1.489V152.4H162.2v-1.3Z" transform="translate(-162.2 -151.038)" fill="#0056a2"/>
        <path id="Path_14" data-name="Path 14" d="M183.991,155.84v3.971h-1.427v-3.6a1.5,1.5,0,0,0-1.613-1.613,1.943,1.943,0,0,0-1.923,2.11v3.1H177.6V151h1.427v3.6a2.548,2.548,0,0,1,2.482-1.365A2.411,2.411,0,0,1,183.991,155.84Z" transform="translate(-168.045 -151)" fill="#0056a2"/>
        <path id="Path_15" data-name="Path 15" d="M199.515,158.271h-5.026a2.007,2.007,0,0,0,2.048,1.675,2.36,2.36,0,0,0,1.861-.807l.745.807a3.787,3.787,0,0,1-2.73,1.117,3.382,3.382,0,1,1-.062-6.763C198.708,154.362,199.639,155.913,199.515,158.271Zm-1.3-.993a1.729,1.729,0,0,0-1.861-1.737,1.955,1.955,0,0,0-1.986,1.737Z" transform="translate(-173.889 -152.252)" fill="#0056a2"/>
        <path id="Path_16" data-name="Path 16" d="M221.554,152.4a3.1,3.1,0,1,0,0,6.2,3.34,3.34,0,0,0,2.42-1.055l.869.993a5,5,0,0,1-3.413,1.427,4.438,4.438,0,1,1,.062-8.873,4.8,4.8,0,0,1,3.351,1.365l-.869,1.055A3.088,3.088,0,0,0,221.554,152.4Z" transform="translate(-182.96 -151.038)" fill="#0056a2"/>
        <path id="Path_17" data-name="Path 17" d="M240.749,157.751a3.477,3.477,0,1,1-3.475-3.351A3.273,3.273,0,0,1,240.749,157.751Zm-5.522.062a1.989,1.989,0,0,0,2.048,2.172,2.175,2.175,0,1,0-2.048-2.172Z" transform="translate(-189.374 -152.29)" fill="#0056a2"/>
        <path id="Path_18" data-name="Path 18" d="M256.829,156.98v4.157H255.4v-3.723a1.5,1.5,0,0,0-1.613-1.613,1.815,1.815,0,0,0-1.861,1.8v3.537H250.5V154.5h1.427v1.3a2.5,2.5,0,0,1,2.482-1.3A2.237,2.237,0,0,1,256.829,156.98Z" transform="translate(-195.712 -152.327)" fill="#0056a2"/>
        <path id="Path_19" data-name="Path 19" d="M273.229,156.98v4.157H271.8v-3.723a1.5,1.5,0,0,0-1.613-1.613,1.815,1.815,0,0,0-1.861,1.8v3.537H266.9V154.5h1.427v1.3a2.505,2.505,0,0,1,2.482-1.3A2.237,2.237,0,0,1,273.229,156.98Z" transform="translate(-201.936 -152.327)" fill="#0056a2"/>
        <path id="Path_20" data-name="Path 20" d="M288.715,158.271h-5.026a2.006,2.006,0,0,0,2.048,1.675,2.36,2.36,0,0,0,1.861-.807l.745.807a3.788,3.788,0,0,1-2.73,1.117,3.382,3.382,0,1,1-.062-6.763C287.97,154.362,288.9,155.913,288.715,158.271Zm-1.241-.993a1.729,1.729,0,0,0-1.861-1.737,1.856,1.856,0,0,0-1.923,1.737Z" transform="translate(-207.742 -152.252)" fill="#0056a2"/>
        <path id="Path_21" data-name="Path 21" d="M300.613,155.6a2.114,2.114,0,0,0,0,4.219,2.532,2.532,0,0,0,1.986-.807l.807.807a3.366,3.366,0,0,1-2.854,1.241,3.382,3.382,0,0,1,0-6.763,3.379,3.379,0,0,1,2.73,1.117l-.807.931A2.676,2.676,0,0,0,300.613,155.6Z" transform="translate(-213.435 -152.252)" fill="#0056a2"/>
        <path id="Path_22" data-name="Path 22" d="M315.905,159.756a3.075,3.075,0,0,1-1.613.5,1.742,1.742,0,0,1-1.861-1.923v-3.475H311.5V153.8h.931V152h1.427v1.8h1.985v1.055h-1.985v3.164c0,.683.248.931.744.931a2.28,2.28,0,0,0,.993-.31Z" transform="translate(-218.862 -151.38)" fill="#0056a2"/>
        <path id="Path_23" data-name="Path 23" d="M325.237,151.969a.869.869,0,1,1-.869-.869A.814.814,0,0,1,325.237,151.969Zm-.124,1.861v6.019h-1.427V153.83Z" transform="translate(-223.417 -151.038)" fill="#0056a2"/>
        <path id="Path_24" data-name="Path 24" d="M338.549,157.751a3.477,3.477,0,1,1-3.475-3.351A3.274,3.274,0,0,1,338.549,157.751Zm-5.522.062a2.051,2.051,0,1,0,2.047-2.172A1.989,1.989,0,0,0,333.027,157.813Z" transform="translate(-226.491 -152.29)" fill="#0056a2"/>
        <path id="Path_25" data-name="Path 25" d="M354.629,156.98v4.157H353.2v-3.723a1.5,1.5,0,0,0-1.613-1.613,1.815,1.815,0,0,0-1.861,1.8v3.537H348.3V154.5h1.427v1.3a2.505,2.505,0,0,1,2.482-1.3A2.237,2.237,0,0,1,354.629,156.98Z" transform="translate(-232.829 -152.327)" fill="#0056a2"/>
      </g>
    </g>
  </g>
</svg>
